<mxfile host="app.diagrams.net" modified="2023-08-09T05:48:31.311Z" agent="Mozilla/5.0 (Windows NT 10.0; Win64; x64) AppleWebKit/537.36 (KHTML, like Gecko) Chrome/115.0.0.0 Safari/537.36 OPR/101.0.0.0" version="21.6.7" etag="2ykqkhWKcYhlLUdc4gHE" type="github">
  <diagram name="Page-1" id="AC6UeztF6yKiVKM_8Mk5">
    <mxGraphModel>
      <root>
        <mxCell id="0" />
        <mxCell id="1" parent="0" />
      </root>
    </mxGraphModel>
  </diagram>
</mxfile>
